<svg xmlns="http://www.w3.org/2000/svg" viewBox="0 0 108.00 54.13" width="512" height="257" role="img" aria-label="TOTEM">
  <title>TOTEM</title>
  <rect width="108.00" height="54.13" fill="#f4efe9"/>
  <defs><mask id="m0a" maskUnits="userSpaceOnUse" x="-2.40" y="-12.53" width="22.80" height="79.20"><rect x="-2.40" y="-12.53" width="22.80" height="79.20" fill="#fff"/><rect x="-7.68" y="-3.55" width="15.36" height="7.10" fill="#000" transform="translate(9.00,12.15) rotate(143.01)"/><rect x="-7.68" y="-3.55" width="15.36" height="7.10" fill="#000" transform="translate(9.00,32.04) rotate(143.01)"/><rect x="-7.68" y="-3.55" width="15.36" height="7.10" fill="#000" transform="translate(9.00,51.92) rotate(143.01)"/></mask><mask id="m0b" maskUnits="userSpaceOnUse" x="-2.40" y="-12.53" width="22.80" height="79.20"><rect x="-2.40" y="-12.53" width="22.80" height="79.20" fill="#fff"/><rect x="-7.68" y="-3.55" width="15.36" height="7.10" fill="#000" transform="translate(9.00,2.21) rotate(143.01)"/><rect x="-7.68" y="-3.55" width="15.36" height="7.10" fill="#000" transform="translate(9.00,22.10) rotate(143.01)"/><rect x="-7.68" y="-3.55" width="15.36" height="7.10" fill="#000" transform="translate(9.00,41.98) rotate(143.01)"/></mask></defs>
  <path d="M9.000 -7.733C10.540 -6.573 15.600 -5.082 15.600 -2.762C15.600 -0.442 12.080 -0.110 9.000 2.210C5.920 4.530 2.400 4.861 2.400 7.181C2.400 9.501 5.920 9.832 9.000 12.152C12.080 14.472 15.600 14.804 15.600 17.124C15.600 19.444 12.080 19.775 9.000 22.095C5.920 24.415 2.400 24.747 2.400 27.067C2.400 29.387 5.920 29.718 9.000 32.038C12.080 34.358 15.600 34.690 15.600 37.010C15.600 39.330 12.080 39.661 9.000 41.981C5.920 44.301 2.400 44.632 2.400 46.952C2.400 49.272 5.920 49.604 9.000 51.924C12.080 54.244 15.600 54.575 15.600 56.895C15.600 59.215 10.540 60.707 9.000 61.867" fill="none" stroke="#9a4b2e" stroke-width="4.8" stroke-linecap="round" stroke-linejoin="round" mask="url(#m0a)"/>
  <path d="M9.000 -7.733C7.460 -6.573 2.400 -5.082 2.400 -2.762C2.400 -0.442 5.920 -0.110 9.000 2.210C12.080 4.530 15.600 4.861 15.600 7.181C15.600 9.501 12.080 9.832 9.000 12.152C5.920 14.472 2.400 14.804 2.400 17.124C2.400 19.444 5.920 19.775 9.000 22.095C12.080 24.415 15.600 24.747 15.600 27.067C15.600 29.387 12.080 29.718 9.000 32.038C5.920 34.358 2.400 34.690 2.400 37.010C2.400 39.330 5.920 39.661 9.000 41.981C12.080 44.301 15.600 44.632 15.600 46.952C15.600 49.272 12.080 49.604 9.000 51.924C5.920 54.244 2.400 54.575 2.400 56.895C2.400 59.215 7.460 60.707 9.000 61.867" fill="none" stroke="#9a4b2e" stroke-width="4.8" stroke-linecap="round" stroke-linejoin="round" mask="url(#m0b)"/>
  <defs><mask id="m1a" maskUnits="userSpaceOnUse" x="15.60" y="-16.40" width="22.80" height="79.20"><rect x="15.60" y="-16.40" width="22.80" height="79.20" fill="#fff"/><rect x="-7.68" y="-3.55" width="15.36" height="7.10" fill="#000" transform="translate(27.00,8.29) rotate(143.01)"/><rect x="-7.68" y="-3.55" width="15.36" height="7.10" fill="#000" transform="translate(27.00,28.17) rotate(143.01)"/><rect x="-7.68" y="-3.55" width="15.36" height="7.10" fill="#000" transform="translate(27.00,48.06) rotate(143.01)"/></mask><mask id="m1b" maskUnits="userSpaceOnUse" x="15.60" y="-16.40" width="22.80" height="79.20"><rect x="15.60" y="-16.40" width="22.80" height="79.20" fill="#fff"/><rect x="-7.68" y="-3.55" width="15.36" height="7.10" fill="#000" transform="translate(27.00,-1.66) rotate(143.01)"/><rect x="-7.68" y="-3.55" width="15.36" height="7.10" fill="#000" transform="translate(27.00,18.23) rotate(143.01)"/><rect x="-7.68" y="-3.55" width="15.36" height="7.10" fill="#000" transform="translate(27.00,38.11) rotate(143.01)"/></mask></defs>
  <path d="M27.000 -11.600C28.540 -10.440 33.600 -8.949 33.600 -6.629C33.600 -4.309 30.080 -3.977 27.000 -1.657C23.920 0.663 20.400 0.994 20.400 3.314C20.400 5.634 23.920 5.966 27.000 8.286C30.080 10.606 33.600 10.937 33.600 13.257C33.600 15.577 30.080 15.909 27.000 18.229C23.920 20.549 20.400 20.880 20.400 23.200C20.400 25.520 23.920 25.851 27.000 28.171C30.080 30.491 33.600 30.823 33.600 33.143C33.600 35.463 30.080 35.794 27.000 38.114C23.920 40.434 20.400 40.766 20.400 43.086C20.400 45.406 23.920 45.737 27.000 48.057C30.080 50.377 33.600 50.709 33.600 53.029C33.600 55.349 28.540 56.840 27.000 58.000" fill="none" stroke="#9a4b2e" stroke-width="4.8" stroke-linecap="round" stroke-linejoin="round" mask="url(#m1a)"/>
  <path d="M27.000 -11.600C25.460 -10.440 20.400 -8.949 20.400 -6.629C20.400 -4.309 23.920 -3.977 27.000 -1.657C30.080 0.663 33.600 0.994 33.600 3.314C33.600 5.634 30.080 5.966 27.000 8.286C23.920 10.606 20.400 10.937 20.400 13.257C20.400 15.577 23.920 15.909 27.000 18.229C30.080 20.549 33.600 20.880 33.600 23.200C33.600 25.520 30.080 25.851 27.000 28.171C23.920 30.491 20.400 30.823 20.400 33.143C20.400 35.463 23.920 35.794 27.000 38.114C30.080 40.434 33.600 40.766 33.600 43.086C33.600 45.406 30.080 45.737 27.000 48.057C23.920 50.377 20.400 50.709 20.400 53.029C20.400 55.349 25.460 56.840 27.000 58.000" fill="none" stroke="#9a4b2e" stroke-width="4.8" stroke-linecap="round" stroke-linejoin="round" mask="url(#m1b)"/>
  <defs><mask id="m2a" maskUnits="userSpaceOnUse" x="33.60" y="-12.53" width="22.80" height="79.20"><rect x="33.60" y="-12.53" width="22.80" height="79.20" fill="#fff"/><rect x="-7.68" y="-3.55" width="15.36" height="7.10" fill="#000" transform="translate(45.00,12.15) rotate(143.01)"/><rect x="-7.68" y="-3.55" width="15.36" height="7.10" fill="#000" transform="translate(45.00,32.04) rotate(143.01)"/><rect x="-7.68" y="-3.55" width="15.36" height="7.10" fill="#000" transform="translate(45.00,51.92) rotate(143.01)"/></mask><mask id="m2b" maskUnits="userSpaceOnUse" x="33.60" y="-12.53" width="22.80" height="79.20"><rect x="33.60" y="-12.53" width="22.80" height="79.20" fill="#fff"/><rect x="-7.68" y="-3.55" width="15.36" height="7.10" fill="#000" transform="translate(45.00,2.21) rotate(143.01)"/><rect x="-7.68" y="-3.55" width="15.36" height="7.10" fill="#000" transform="translate(45.00,22.10) rotate(143.01)"/><rect x="-7.68" y="-3.55" width="15.36" height="7.10" fill="#000" transform="translate(45.00,41.98) rotate(143.01)"/></mask></defs>
  <path d="M45.000 -7.733C46.540 -6.573 51.600 -5.082 51.600 -2.762C51.600 -0.442 48.080 -0.110 45.000 2.210C41.920 4.530 38.400 4.861 38.400 7.181C38.400 9.501 41.920 9.832 45.000 12.152C48.080 14.472 51.600 14.804 51.600 17.124C51.600 19.444 48.080 19.775 45.000 22.095C41.920 24.415 38.400 24.747 38.400 27.067C38.400 29.387 41.920 29.718 45.000 32.038C48.080 34.358 51.600 34.690 51.600 37.010C51.600 39.330 48.080 39.661 45.000 41.981C41.920 44.301 38.400 44.632 38.400 46.952C38.400 49.272 41.920 49.604 45.000 51.924C48.080 54.244 51.600 54.575 51.600 56.895C51.600 59.215 46.540 60.707 45.000 61.867" fill="none" stroke="#9a4b2e" stroke-width="4.8" stroke-linecap="round" stroke-linejoin="round" mask="url(#m2a)"/>
  <path d="M45.000 -7.733C43.460 -6.573 38.400 -5.082 38.400 -2.762C38.400 -0.442 41.920 -0.110 45.000 2.210C48.080 4.530 51.600 4.861 51.600 7.181C51.600 9.501 48.080 9.832 45.000 12.152C41.920 14.472 38.400 14.804 38.400 17.124C38.400 19.444 41.920 19.775 45.000 22.095C48.080 24.415 51.600 24.747 51.600 27.067C51.600 29.387 48.080 29.718 45.000 32.038C41.920 34.358 38.400 34.690 38.400 37.010C38.400 39.330 41.920 39.661 45.000 41.981C48.080 44.301 51.600 44.632 51.600 46.952C51.600 49.272 48.080 49.604 45.000 51.924C41.920 54.244 38.400 54.575 38.400 56.895C38.400 59.215 43.460 60.707 45.000 61.867" fill="none" stroke="#9a4b2e" stroke-width="4.8" stroke-linecap="round" stroke-linejoin="round" mask="url(#m2b)"/>
  <defs><mask id="m3a" maskUnits="userSpaceOnUse" x="51.60" y="-16.40" width="22.80" height="79.20"><rect x="51.60" y="-16.40" width="22.80" height="79.20" fill="#fff"/><rect x="-7.68" y="-3.55" width="15.36" height="7.10" fill="#000" transform="translate(63.00,8.29) rotate(143.01)"/><rect x="-7.68" y="-3.55" width="15.36" height="7.10" fill="#000" transform="translate(63.00,28.17) rotate(143.01)"/><rect x="-7.68" y="-3.55" width="15.36" height="7.10" fill="#000" transform="translate(63.00,48.06) rotate(143.01)"/></mask><mask id="m3b" maskUnits="userSpaceOnUse" x="51.60" y="-16.40" width="22.80" height="79.20"><rect x="51.60" y="-16.40" width="22.80" height="79.20" fill="#fff"/><rect x="-7.68" y="-3.55" width="15.36" height="7.10" fill="#000" transform="translate(63.00,-1.66) rotate(143.01)"/><rect x="-7.68" y="-3.55" width="15.36" height="7.10" fill="#000" transform="translate(63.00,18.23) rotate(143.01)"/><rect x="-7.68" y="-3.55" width="15.36" height="7.10" fill="#000" transform="translate(63.00,38.11) rotate(143.01)"/></mask></defs>
  <path d="M63.000 -11.600C64.540 -10.440 69.600 -8.949 69.600 -6.629C69.600 -4.309 66.080 -3.977 63.000 -1.657C59.920 0.663 56.400 0.994 56.400 3.314C56.400 5.634 59.920 5.966 63.000 8.286C66.080 10.606 69.600 10.937 69.600 13.257C69.600 15.577 66.080 15.909 63.000 18.229C59.920 20.549 56.400 20.880 56.400 23.200C56.400 25.520 59.920 25.851 63.000 28.171C66.080 30.491 69.600 30.823 69.600 33.143C69.600 35.463 66.080 35.794 63.000 38.114C59.920 40.434 56.400 40.766 56.400 43.086C56.400 45.406 59.920 45.737 63.000 48.057C66.080 50.377 69.600 50.709 69.600 53.029C69.600 55.349 64.540 56.840 63.000 58.000" fill="none" stroke="#9a4b2e" stroke-width="4.8" stroke-linecap="round" stroke-linejoin="round" mask="url(#m3a)"/>
  <path d="M63.000 -11.600C61.460 -10.440 56.400 -8.949 56.400 -6.629C56.400 -4.309 59.920 -3.977 63.000 -1.657C66.080 0.663 69.600 0.994 69.600 3.314C69.600 5.634 66.080 5.966 63.000 8.286C59.920 10.606 56.400 10.937 56.400 13.257C56.400 15.577 59.920 15.909 63.000 18.229C66.080 20.549 69.600 20.880 69.600 23.200C69.600 25.520 66.080 25.851 63.000 28.171C59.920 30.491 56.400 30.823 56.400 33.143C56.400 35.463 59.920 35.794 63.000 38.114C66.080 40.434 69.600 40.766 69.600 43.086C69.600 45.406 66.080 45.737 63.000 48.057C59.920 50.377 56.400 50.709 56.400 53.029C56.400 55.349 61.460 56.840 63.000 58.000" fill="none" stroke="#9a4b2e" stroke-width="4.8" stroke-linecap="round" stroke-linejoin="round" mask="url(#m3b)"/>
  <defs><mask id="m4a" maskUnits="userSpaceOnUse" x="69.60" y="-12.53" width="22.80" height="79.20"><rect x="69.60" y="-12.53" width="22.80" height="79.20" fill="#fff"/><rect x="-7.68" y="-3.55" width="15.36" height="7.10" fill="#000" transform="translate(81.00,12.15) rotate(143.01)"/><rect x="-7.68" y="-3.55" width="15.36" height="7.10" fill="#000" transform="translate(81.00,32.04) rotate(143.01)"/><rect x="-7.68" y="-3.55" width="15.36" height="7.10" fill="#000" transform="translate(81.00,51.92) rotate(143.01)"/></mask><mask id="m4b" maskUnits="userSpaceOnUse" x="69.60" y="-12.53" width="22.80" height="79.20"><rect x="69.60" y="-12.53" width="22.80" height="79.20" fill="#fff"/><rect x="-7.68" y="-3.55" width="15.36" height="7.10" fill="#000" transform="translate(81.00,2.21) rotate(143.01)"/><rect x="-7.68" y="-3.55" width="15.36" height="7.10" fill="#000" transform="translate(81.00,22.10) rotate(143.01)"/><rect x="-7.68" y="-3.55" width="15.36" height="7.10" fill="#000" transform="translate(81.00,41.98) rotate(143.01)"/></mask></defs>
  <path d="M81.000 -7.733C82.540 -6.573 87.600 -5.082 87.600 -2.762C87.600 -0.442 84.080 -0.110 81.000 2.210C77.920 4.530 74.400 4.861 74.400 7.181C74.400 9.501 77.920 9.832 81.000 12.152C84.080 14.472 87.600 14.804 87.600 17.124C87.600 19.444 84.080 19.775 81.000 22.095C77.920 24.415 74.400 24.747 74.400 27.067C74.400 29.387 77.920 29.718 81.000 32.038C84.080 34.358 87.600 34.690 87.600 37.010C87.600 39.330 84.080 39.661 81.000 41.981C77.920 44.301 74.400 44.632 74.400 46.952C74.400 49.272 77.920 49.604 81.000 51.924C84.080 54.244 87.600 54.575 87.600 56.895C87.600 59.215 82.540 60.707 81.000 61.867" fill="none" stroke="#9a4b2e" stroke-width="4.8" stroke-linecap="round" stroke-linejoin="round" mask="url(#m4a)"/>
  <path d="M81.000 -7.733C79.460 -6.573 74.400 -5.082 74.400 -2.762C74.400 -0.442 77.920 -0.110 81.000 2.210C84.080 4.530 87.600 4.861 87.600 7.181C87.600 9.501 84.080 9.832 81.000 12.152C77.920 14.472 74.400 14.804 74.400 17.124C74.400 19.444 77.920 19.775 81.000 22.095C84.080 24.415 87.600 24.747 87.600 27.067C87.600 29.387 84.080 29.718 81.000 32.038C77.920 34.358 74.400 34.690 74.400 37.010C74.400 39.330 77.920 39.661 81.000 41.981C84.080 44.301 87.600 44.632 87.600 46.952C87.600 49.272 84.080 49.604 81.000 51.924C77.920 54.244 74.400 54.575 74.400 56.895C74.400 59.215 79.460 60.707 81.000 61.867" fill="none" stroke="#9a4b2e" stroke-width="4.8" stroke-linecap="round" stroke-linejoin="round" mask="url(#m4b)"/>
  <defs><mask id="m5a" maskUnits="userSpaceOnUse" x="87.60" y="-16.40" width="22.80" height="79.20"><rect x="87.60" y="-16.40" width="22.80" height="79.20" fill="#fff"/><rect x="-7.68" y="-3.55" width="15.36" height="7.10" fill="#000" transform="translate(99.00,8.29) rotate(143.01)"/><rect x="-7.68" y="-3.55" width="15.36" height="7.10" fill="#000" transform="translate(99.00,28.17) rotate(143.01)"/><rect x="-7.68" y="-3.55" width="15.36" height="7.10" fill="#000" transform="translate(99.00,48.06) rotate(143.01)"/></mask><mask id="m5b" maskUnits="userSpaceOnUse" x="87.60" y="-16.40" width="22.80" height="79.20"><rect x="87.60" y="-16.40" width="22.80" height="79.20" fill="#fff"/><rect x="-7.68" y="-3.55" width="15.36" height="7.10" fill="#000" transform="translate(99.00,-1.66) rotate(143.01)"/><rect x="-7.68" y="-3.55" width="15.36" height="7.10" fill="#000" transform="translate(99.00,18.23) rotate(143.01)"/><rect x="-7.68" y="-3.55" width="15.36" height="7.10" fill="#000" transform="translate(99.00,38.11) rotate(143.01)"/></mask></defs>
  <path d="M99.000 -11.600C100.540 -10.440 105.600 -8.949 105.600 -6.629C105.600 -4.309 102.080 -3.977 99.000 -1.657C95.920 0.663 92.400 0.994 92.400 3.314C92.400 5.634 95.920 5.966 99.000 8.286C102.080 10.606 105.600 10.937 105.600 13.257C105.600 15.577 102.080 15.909 99.000 18.229C95.920 20.549 92.400 20.880 92.400 23.200C92.400 25.520 95.920 25.851 99.000 28.171C102.080 30.491 105.600 30.823 105.600 33.143C105.600 35.463 102.080 35.794 99.000 38.114C95.920 40.434 92.400 40.766 92.400 43.086C92.400 45.406 95.920 45.737 99.000 48.057C102.080 50.377 105.600 50.709 105.600 53.029C105.600 55.349 100.540 56.840 99.000 58.000" fill="none" stroke="#9a4b2e" stroke-width="4.8" stroke-linecap="round" stroke-linejoin="round" mask="url(#m5a)"/>
  <path d="M99.000 -11.600C97.460 -10.440 92.400 -8.949 92.400 -6.629C92.400 -4.309 95.920 -3.977 99.000 -1.657C102.080 0.663 105.600 0.994 105.600 3.314C105.600 5.634 102.080 5.966 99.000 8.286C95.920 10.606 92.400 10.937 92.400 13.257C92.400 15.577 95.920 15.909 99.000 18.229C102.080 20.549 105.600 20.880 105.600 23.200C105.600 25.520 102.080 25.851 99.000 28.171C95.920 30.491 92.400 30.823 92.400 33.143C92.400 35.463 95.920 35.794 99.000 38.114C102.080 40.434 105.600 40.766 105.600 43.086C105.600 45.406 102.080 45.737 99.000 48.057C95.920 50.377 92.400 50.709 92.400 53.029C92.400 55.349 97.460 56.840 99.000 58.000" fill="none" stroke="#9a4b2e" stroke-width="4.8" stroke-linecap="round" stroke-linejoin="round" mask="url(#m5b)"/>
</svg>
